<svg width="66" height="66" viewBox="0 0 66 66" fill="none" xmlns="http://www.w3.org/2000/svg">
  <rect width="66" height="66" rx="10" fill="#0A0A0F"/>
  <g transform="translate(0, 21)">
    <path d="M36.1372 0C38.7014 0 40.3041 2.77582 39.022 4.99649L36.4821 9.39555L32.6722 7.19584L34.2867 4.39943H26.5455L17.9097 19.3571H18.8649V23.7565H16.0592C13.495 23.7565 11.8923 20.9807 13.1744 18.76L23.0439 1.6655C23.6389 0.634884 24.7386 0 25.9287 0H36.1372Z" fill="#00D9FF"/>
    <path d="M29.0065 23.7568C26.4423 23.7568 24.8396 20.981 26.1217 18.7603L28.6616 14.3613L32.4715 16.561L30.857 19.3574H38.5982L47.2341 4.39973H46.2788V0.000299454H49.0845C51.6487 0.000299454 53.2514 2.77613 51.9693 4.99679L42.0998 22.0913C41.5048 23.122 40.4051 23.7568 39.215 23.7568H29.0065Z" fill="white"/>
  </g>
</svg>
