<svg width="216" height="933" viewBox="0 0 216 933" fill="none" xmlns="http://www.w3.org/2000/svg">
<path d="M216 864.06C216 875.18 216.002 883.692 215.474 890.496C214.943 897.332 213.863 902.696 211.565 907.479C207.138 916.7 199.7 924.138 190.479 928.565C185.696 930.863 180.332 931.943 173.496 932.474C166.692 933.002 158.18 933 147.06 933H68.9404C57.8202 933 49.308 933.002 42.5039 932.474C35.6675 931.943 30.3043 930.863 25.5205 928.565C16.2997 924.138 8.86242 916.7 4.43457 907.479C2.13742 902.696 1.05737 897.332 0.526368 890.496C-0.00210822 883.692 7.93711e-07 875.18 7.93711e-07 864.06V406.405C7.93711e-07 405.556 0.738669 404.903 1.58602 404.956C2.36167 405.004 3 405.63 3 406.407V864.06C3 886.394 2.99983 897.561 7.13867 906.181C11.2714 914.787 18.213 921.729 26.8193 925.861C34.3611 929.483 43.8538 929.936 61.0713 929.992L68.9404 930H147.06C168.696 930 179.853 930 188.365 926.237L189.181 925.861C197.518 921.858 204.293 915.218 208.466 906.982L208.861 906.181C213 897.561 213 886.394 213 864.06V406.407C213 405.63 213.638 405.004 214.414 404.956C215.261 404.903 216 405.556 216 406.405V864.06ZM147.06 7.93444e-07C158.18 7.93444e-07 166.692 -0.00210822 173.496 0.526368C180.332 1.05737 185.696 2.13742 190.479 4.43457C199.7 8.86242 207.138 16.2996 211.565 25.5205C213.863 30.3043 214.943 35.6675 215.474 42.5039C216.002 49.308 216 57.8202 216 68.9404V118.594C216 119.443 215.261 120.096 214.414 120.044C213.638 119.996 213 119.37 213 118.593V68.9404C213 47.3039 213 36.1471 209.237 27.6348L208.861 26.8193C204.858 18.4819 198.218 11.7067 189.982 7.53418L189.181 7.13867C180.561 2.99982 169.394 3 147.06 3H68.9404L61.0713 3.00781C43.8538 3.0644 34.3611 3.51718 26.8193 7.13867C18.213 11.2714 11.2714 18.213 7.13867 26.8193C2.99982 35.4385 3 46.6062 3 68.9404V118.593C3 119.37 2.36168 119.996 1.58602 120.044C0.738661 120.096 7.93711e-07 119.443 7.93711e-07 118.594V68.9404C7.93651e-07 57.8202 -0.00210849 49.308 0.526368 42.5039C1.05737 35.6675 2.13741 30.3043 4.43457 25.5205C8.86242 16.2996 16.2996 8.86242 25.5205 4.43457C30.3043 2.13742 35.6675 1.05737 42.5039 0.526368C49.308 -0.00210825 57.8202 7.93384e-07 68.9404 7.93444e-07H147.06Z" fill="#00D9FF" fill-opacity="0.1"/>
<g opacity="0.5" clip-path="url(#clip0_4017_3)">
<path d="M17.5517 149L1.21306 176.571" stroke="#06CEFE" stroke-opacity="0.01" stroke-width="3.57407"/>
<path d="M17.5517 167.381L1.21306 194.952" stroke="#06CEFE" stroke-opacity="0.05" stroke-width="3.57407"/>
<path d="M17.5517 185.762L1.21306 213.333" stroke="#06CEFE" stroke-opacity="0.1" stroke-width="3.57407"/>
<path d="M17.5517 204.143L1.21306 231.714" stroke="#06CEFE" stroke-opacity="0.2" stroke-width="3.57407"/>
<path d="M17.5517 222.524L1.21307 250.095" stroke="#06CEFE" stroke-opacity="0.3" stroke-width="3.57407"/>
<path d="M17.5517 240.905L1.21307 268.476" stroke="#06CEFE" stroke-opacity="0.4" stroke-width="3.57407"/>
<path d="M17.5517 259.286L1.21307 286.857" stroke="#06CEFE" stroke-opacity="0.5" stroke-width="3.57407"/>
<path d="M17.5517 277.667L1.21307 305.238" stroke="#06CEFE" stroke-opacity="0.5" stroke-width="3.57407"/>
<path d="M17.5517 296.048L1.21307 323.619" stroke="#06CEFE" stroke-opacity="0.6" stroke-width="3.57407"/>
<path d="M17.5516 314.428L1.21297 342" stroke="#06CEFE" stroke-opacity="0.8" stroke-width="3.57407"/>
<path d="M17.5516 332.81L1.21297 360.381" stroke="#06CEFE" stroke-opacity="0.9" stroke-width="3.57407"/>
<path d="M17.5516 351.19L1.21297 378.762" stroke="#06CEFE" stroke-width="3.57407"/>
</g>
<g opacity="0.5" clip-path="url(#clip1_4017_3)">
<path d="M198.213 378.762L214.552 351.19" stroke="#06CEFE" stroke-opacity="0.01" stroke-width="3.57407"/>
<path d="M198.213 360.381L214.552 332.809" stroke="#06CEFE" stroke-opacity="0.05" stroke-width="3.57407"/>
<path d="M198.213 342L214.552 314.428" stroke="#06CEFE" stroke-opacity="0.1" stroke-width="3.57407"/>
<path d="M198.213 323.619L214.552 296.047" stroke="#06CEFE" stroke-opacity="0.2" stroke-width="3.57407"/>
<path d="M198.213 305.238L214.552 277.666" stroke="#06CEFE" stroke-opacity="0.3" stroke-width="3.57407"/>
<path d="M198.213 286.857L214.552 259.286" stroke="#06CEFE" stroke-opacity="0.4" stroke-width="3.57407"/>
<path d="M198.213 268.476L214.552 240.905" stroke="#06CEFE" stroke-opacity="0.5" stroke-width="3.57407"/>
<path d="M198.213 250.095L214.552 222.524" stroke="#06CEFE" stroke-opacity="0.5" stroke-width="3.57407"/>
<path d="M198.213 231.714L214.552 204.143" stroke="#06CEFE" stroke-opacity="0.6" stroke-width="3.57407"/>
<path d="M198.213 213.333L214.552 185.762" stroke="#06CEFE" stroke-opacity="0.8" stroke-width="3.57407"/>
<path d="M198.213 194.952L214.552 167.381" stroke="#06CEFE" stroke-opacity="0.9" stroke-width="3.57407"/>
<path d="M198.213 176.571L214.552 149" stroke="#06CEFE" stroke-width="3.57407"/>
</g>
<defs>
<clipPath id="clip0_4017_3">
<rect width="229.762" height="12.7646" fill="white" transform="matrix(4.37114e-08 1 1 -4.37114e-08 3 149)"/>
</clipPath>
<clipPath id="clip1_4017_3">
<rect width="229.762" height="12.7646" fill="white" transform="matrix(-4.37114e-08 -1 -1 4.37114e-08 212.765 378.762)"/>
</clipPath>
</defs>
</svg>
